<svg xmlns="http://www.w3.org/2000/svg" width="800" height="1000" viewBox="0 0 800 1000">
  <defs>
    <linearGradient id="gradAbout" x1="0%" y1="0%" x2="100%" y2="100%">
      <stop offset="0%" style="stop-color:#9c7a54;stop-opacity:1" />
      <stop offset="100%" style="stop-color:#d4b483;stop-opacity:1" />
    </linearGradient>
    <pattern id="pattern" x="0" y="0" width="20" height="20" patternUnits="userSpaceOnUse">
      <circle cx="10" cy="10" r="1" fill="#f8f5f0" opacity="0.3" />
    </pattern>
  </defs>
  <rect width="100%" height="100%" fill="url(#gradAbout)" />
  <rect width="100%" height="100%" fill="url(#pattern)" />
  
  <!-- Abstract restaurant themed elements -->
  <g fill="none" stroke="#f8f5f0" stroke-width="2" opacity="0.6">
    <!-- Fork abstraction -->
    <path d="M200,300 L200,500 M180,320 L180,400 M220,320 L220,400 M160,340 L240,340" />
    
    <!-- Knife abstraction -->
    <path d="M500,300 L600,500 M520,320 L550,400" />
    
    <!-- Plate abstraction -->
    <circle cx="400" cy="650" r="100" />
    <circle cx="400" cy="650" r="80" />
    
    <!-- Chef hat abstraction -->
    <path d="M350,150 C330,120 330,80 400,80 C470,80 470,120 450,150 L450,180 L350,180 Z" />
  </g>
</svg>
